<svg width="80" height="80" viewBox="0 0 80 80" fill="none" xmlns="http://www.w3.org/2000/svg">
<g clip-path="url(#clip0_235_29465)">
<path d="M79.9664 52.4882L79.6427 5.37772C79.6245 2.71826 77.4568 0.550571 74.7973 0.532302L64.0328 0.458355L64.3894 52.3813C64.4348 58.9665 59.0893 64.312 52.4411 64.3296L28.189 64.0996C21.6036 64.0544 16.1844 58.6352 16.0755 51.986L15.9085 27.6708C15.8631 21.0857 21.2086 15.7402 27.8568 15.7226L48.4992 15.8645L48.3922 0.287604L27.6868 0.208665C12.4898 0.104338 0.164396 12.4298 0.268724 27.6268L0.435644 51.942C0.540203 67.1388 13.0363 79.6348 28.2331 79.7394L52.5482 79.9063C67.8081 79.9478 80.0707 67.6852 79.9664 52.4882Z" fill="#26A4DA"/>
<path d="M42.0901 49.7945L49.3934 42.5909C50.4754 41.5237 50.4754 39.8342 49.3934 38.767L40.1967 29.7847L31 38.8558C29.918 39.923 29.918 41.6129 31 42.6801L38.3032 49.8837C39.295 50.7729 41.0081 50.7729 42.0901 49.7945Z" fill="#939598"/>
</g>
<defs>
<clipPath id="clip0_235_29465">
<rect width="80" height="80" fill="white"/>
</clipPath>
</defs>
</svg>
