<svg width="75" height="16" viewBox="0 0 75 16" fill="none" xmlns="http://www.w3.org/2000/svg">
<path d="M14.7458 3.45146C14.5516 3.24469 14.4545 3.03793 14.1632 2.93452C13.969 2.83117 13.6777 2.72776 13.3864 2.62434C13.0951 2.521 12.8037 2.521 12.5124 2.521C12.0269 2.521 11.5414 2.62434 11.0559 2.72776C10.5703 2.83117 10.1819 3.03793 9.7935 3.24469V4.38192C10.0848 4.07174 10.4732 3.96839 10.9588 3.76163C11.3472 3.65822 11.8327 3.55487 12.2211 3.55487C12.8037 3.55487 13.2893 3.65822 13.6777 3.96839C13.969 4.27857 14.1632 4.69209 14.1632 5.31237V6.24283C14.0661 6.13949 13.8719 6.13949 13.6777 6.03607C13.4835 5.93273 13.1922 5.82931 12.9008 5.82931C12.6095 5.72597 12.2211 5.72597 11.8327 5.72597C11.3472 5.72597 10.8617 5.82931 10.4732 6.03607C10.0848 6.24283 9.7935 6.44966 9.50219 6.86319C9.30798 7.27671 9.11377 7.79364 9.11377 8.41393C9.11377 8.93087 9.21088 9.24104 9.40508 9.55122C9.59929 9.86133 9.7935 10.0682 10.0848 10.2749C10.3761 10.4817 10.6674 10.585 10.9588 10.6884C11.2501 10.7919 11.6385 10.7919 11.9298 10.7919C12.5124 10.7919 12.9979 10.7919 13.4835 10.6884C13.969 10.585 14.3574 10.3783 14.6487 10.1715C14.94 9.86133 15.1342 9.4478 15.1342 8.93087V5.10561C15.1342 4.79544 15.1343 4.48533 15.0371 4.17515C15.0371 3.86498 14.94 3.65822 14.7458 3.45146ZM14.1632 8.93087C14.1632 9.24104 13.969 9.55122 13.6777 9.65456C13.3864 9.75798 12.9008 9.75798 12.2211 9.75798C11.9298 9.75798 11.5414 9.75798 11.2501 9.65456C10.9588 9.55122 10.6674 9.4478 10.4732 9.13763C10.279 8.93087 10.1819 8.62076 10.1819 8.20717C10.1819 7.69023 10.3761 7.38012 10.6674 7.06995C10.9588 6.86319 11.4443 6.65642 12.124 6.65642C12.6095 6.65642 13.0951 6.75977 13.4835 6.86319C13.6777 6.96653 13.969 7.06995 14.0661 7.06995V8.93087H14.1632Z" fill="#8C8C8C"/>
<path d="M18.8242 0.453125L17.756 0.453125V2.62419H16.4937V3.65807H17.756V8.51719C17.756 9.13748 17.9502 9.65441 18.2415 10.068C18.63 10.3781 19.0184 10.5849 19.5039 10.5849C19.6981 10.5849 19.8923 10.5849 20.0865 10.4815C20.2807 10.4815 20.4749 10.3781 20.572 10.3781V9.34431C20.4749 9.44765 20.2807 9.44765 20.1836 9.44765C19.9894 9.44765 19.8923 9.55107 19.6981 9.55107C19.3097 9.55107 19.0184 9.44765 18.9213 9.24089C18.8242 9.03413 18.7271 8.72395 18.7271 8.20702V3.76148L20.6691 3.76148V2.72761L18.7271 2.72761V0.453125H18.8242Z" fill="#8C8C8C"/>
<path d="M27.6604 3.45146C27.4662 3.24469 27.3691 3.03793 27.0778 2.93452C26.8835 2.83117 26.5922 2.72776 26.3009 2.62434C26.0096 2.521 25.7183 2.521 25.427 2.521C24.9415 2.521 24.4559 2.62434 23.9704 2.72776C23.4849 2.83117 23.0965 3.03793 22.7081 3.24469V4.38192C22.9994 4.07174 23.3878 3.86498 23.8733 3.76163C24.2617 3.65822 24.7472 3.55487 25.1357 3.55487C25.7183 3.55487 26.2038 3.65822 26.5922 3.96839C26.8835 4.27857 27.0778 4.69209 27.0778 5.31237V6.24283C26.8835 6.13949 26.7864 6.03607 26.5922 6.03607C26.398 5.93273 26.1067 5.82931 25.8154 5.82931C25.5241 5.72597 25.1357 5.72597 24.7472 5.72597C24.2617 5.72597 23.7762 5.82931 23.3878 6.03607C22.9994 6.24283 22.7081 6.44966 22.4167 6.86319C22.2225 7.27671 22.0283 7.79364 22.0283 8.41393C22.0283 8.93087 22.1254 9.24104 22.3196 9.55122C22.5138 9.86133 22.7081 10.0682 22.9994 10.2749C23.2907 10.4817 23.582 10.585 23.8733 10.6884C24.1646 10.7919 24.553 10.7919 24.8444 10.7919C25.427 10.7919 25.9125 10.7919 26.398 10.6884C26.8835 10.585 27.272 10.3783 27.5633 10.1715C27.8546 9.86133 28.0488 9.4478 28.0488 8.93087V5.10561C28.0488 4.79544 28.0488 4.48533 27.9517 4.17515C27.8546 3.86498 27.7575 3.65822 27.6604 3.45146ZM26.9806 8.93087C26.9806 9.24104 26.7864 9.55122 26.4951 9.65456C26.2038 9.75798 25.7183 9.75798 25.0386 9.75798C24.7472 9.75798 24.3588 9.75798 24.0675 9.65456C23.7762 9.55122 23.4849 9.4478 23.2907 9.13763C23.0965 8.93087 22.9994 8.62076 22.9994 8.20717C22.9994 7.69023 23.1936 7.38012 23.4849 7.06995C23.7762 6.86319 24.2617 6.65642 24.9415 6.65642C25.427 6.65642 25.9125 6.75977 26.3009 6.86319C26.4951 6.96653 26.7864 7.06995 26.8835 7.06995V8.93087H26.9806Z" fill="#8C8C8C"/>
<path d="M41.0609 10.4813V5.4154C41.0609 4.79512 40.9638 4.27818 40.7696 3.86459C40.5754 3.45107 40.2841 3.14089 39.8956 2.93413C39.5072 2.72737 38.9246 2.62402 38.1478 2.62402C37.7593 2.62402 37.468 2.62402 37.0796 2.72737C36.6912 2.72737 36.3999 2.83079 36.0115 3.03755C35.9144 3.14089 35.8172 3.14089 35.623 3.24431C35.5259 3.14089 35.3317 3.03755 35.2346 2.93413C34.8462 2.72737 34.2636 2.62402 33.4867 2.62402C33.1954 2.62402 32.9041 2.62402 32.7099 2.62402C32.4186 2.62402 32.1273 2.72737 31.9331 2.72737C31.6418 2.83078 31.4475 2.93413 31.1562 3.03755C30.8649 3.14089 30.6707 3.24431 30.3794 3.34772V10.5846H31.4475V3.86459C31.7389 3.76125 32.1273 3.65783 32.4186 3.65783C32.7099 3.55448 33.0983 3.55448 33.3896 3.55448C33.8752 3.55448 34.1665 3.65783 34.4578 3.76124C34.7491 3.86459 34.9433 4.07142 35.0404 4.27818C35.1375 4.48494 35.2346 4.6917 35.3317 4.89847C35.3317 5.10523 35.4288 5.31199 35.4288 5.51875V10.5846H36.497V5.51875C36.497 5.00188 36.3999 4.58829 36.3028 4.17477C36.5941 3.96801 36.8854 3.86459 37.1767 3.76124C37.468 3.65783 37.8564 3.65783 38.1478 3.65783C38.6333 3.65783 38.9246 3.76125 39.2159 3.86459C39.5072 3.96801 39.7014 4.17477 39.7985 4.38153C39.8956 4.58829 39.9927 4.79505 40.0898 5.00188C40.0898 5.20864 40.1869 5.4154 40.1869 5.62216V10.6881H41.0609V10.4813Z" fill="#26A4DA"/>
<path d="M48.9264 5.10561C48.9264 4.79544 48.9264 4.48533 48.8292 4.17515C48.732 3.86498 48.6349 3.65822 48.4405 3.45146C48.2462 3.24469 48.149 3.03793 47.8582 2.93452C47.6638 2.83117 47.3723 2.72776 47.0815 2.62434C46.7899 2.521 46.4984 2.521 46.2076 2.521C45.7217 2.521 45.2365 2.62434 44.7507 2.72776C44.2655 2.83117 43.8768 3.03793 43.4883 3.24469V4.38192C43.7796 4.07174 44.1683 3.96839 44.6535 3.76163C45.0422 3.65822 45.5274 3.55487 45.9161 3.55487C46.4984 3.55487 46.9843 3.65822 47.3723 3.96839C47.6638 4.27857 47.8582 4.69209 47.8582 5.31237V6.24283C47.6638 6.13949 47.5666 6.13949 47.3723 6.03607C47.1786 5.93273 46.8871 5.82931 46.5956 5.82931C46.3041 5.72597 45.9161 5.72597 45.5274 5.72597C45.0422 5.72597 44.5563 5.82931 44.1683 6.03607C43.7796 6.24283 43.4883 6.44966 43.197 6.86319C42.9057 7.27671 42.8086 7.69023 42.8086 8.41393C42.8086 8.93087 42.9057 9.24104 43.0999 9.55122C43.2941 9.86133 43.4883 10.0682 43.7796 10.2749C44.0712 10.4817 44.362 10.585 44.6535 10.6884C44.945 10.7919 45.333 10.7919 45.6246 10.7919C46.2076 10.7919 46.6928 10.7919 47.1786 10.6884C47.6638 10.585 48.0525 10.3783 48.3434 10.1715C48.6349 9.86133 48.8292 9.4478 48.8292 8.93087V5.10561H48.9264ZM47.8582 8.93087C47.8582 9.24104 47.6638 9.55122 47.3723 9.65456C47.0815 9.75798 46.5956 9.75798 45.9161 9.75798C45.6246 9.75798 45.2365 9.75798 44.945 9.65456C44.6535 9.55122 44.362 9.4478 44.1683 9.13763C43.974 8.93087 43.8768 8.62076 43.8768 8.20717C43.8768 7.69023 44.0712 7.38012 44.362 7.06995C44.6535 6.86319 45.1394 6.65642 45.8189 6.65642C46.3041 6.65642 46.7899 6.75977 47.1786 6.86319C47.3723 6.96653 47.6638 7.06995 47.761 7.06995V8.93087H47.8582Z" fill="#26A4DA"/>
<path d="M54.85 6.75977C54.6557 6.55301 54.3642 6.44966 54.0726 6.34625C53.7818 6.24283 53.5875 6.13949 53.2959 6.03607C53.0051 5.93273 52.7136 5.82931 52.4221 5.72597C52.1306 5.62255 51.9369 5.51914 51.7425 5.31237C51.5482 5.10561 51.451 4.89885 51.451 4.58868C51.451 4.27857 51.6454 3.96839 51.9369 3.76163C52.2277 3.55487 52.6164 3.45146 53.0051 3.45146C53.3931 3.45146 53.7818 3.55487 54.0726 3.65822C54.3642 3.76163 54.6557 3.96839 55.0437 4.17515V3.14128C54.7528 2.93452 54.3642 2.83117 54.0726 2.72776C53.7818 2.62434 53.3931 2.521 52.9079 2.521C52.6164 2.521 52.3249 2.521 52.0341 2.62434C51.7425 2.72776 51.451 2.83117 51.2567 3.03793C50.9658 3.24469 50.7715 3.45146 50.6743 3.76163C50.6743 4.07174 50.5771 4.38191 50.5771 4.79544C50.5771 5.20903 50.6743 5.51914 50.7715 5.82931C50.9658 6.03607 51.1595 6.24283 51.3538 6.44966C51.5482 6.65642 51.8397 6.75977 52.1306 6.86319C52.4221 6.96653 52.7136 7.06995 53.0051 7.17336C53.2959 7.27671 53.4903 7.38012 53.7818 7.48347C53.9761 7.58688 54.1698 7.69023 54.3642 7.89706C54.5585 8.10382 54.5585 8.31058 54.5585 8.62076C54.5585 9.03428 54.3642 9.24104 54.0726 9.55122C53.7818 9.75798 53.3931 9.86133 52.9079 9.86133C52.6164 9.86133 52.3249 9.86133 52.0341 9.75798C51.7425 9.65456 51.5482 9.65456 51.3538 9.4478C51.1595 9.34446 50.8687 9.13763 50.5771 9.03428V10.2749C50.9658 10.4817 51.3539 10.6884 51.6454 10.7919C52.0334 10.8952 52.4221 10.9986 53.0051 10.9986C53.3931 10.9986 53.879 10.8952 54.267 10.7919C54.6557 10.585 55.0437 10.3783 55.238 9.96474C55.5295 9.65456 55.6267 9.13763 55.6267 8.62076C55.6267 8.20717 55.5295 7.89706 55.4324 7.58688C55.3352 7.06995 55.1409 6.86319 54.85 6.75977Z" fill="#26A4DA"/>
<path d="M58.8313 0.453125L57.763 0.453125V2.62419H56.5005V3.65807H57.763V8.51719C57.763 9.13748 57.9567 9.65441 58.2482 10.068C58.6369 10.3781 59.0249 10.5849 59.5108 10.5849C59.7051 10.5849 59.8988 10.5849 60.0932 10.4815C60.2875 10.4815 60.4818 10.3781 60.579 10.3781V9.34431C60.4818 9.44765 60.2875 9.44765 60.1903 9.44765C59.996 9.44765 59.8988 9.55107 59.7051 9.55107C59.3164 9.55107 59.0249 9.44765 58.9278 9.24089C58.8313 9.03413 58.7341 8.72395 58.7341 8.20702V3.76148L60.6762 3.76148V2.72761L58.7341 2.72761V0.453125H58.8313Z" fill="#26A4DA"/>
<path d="M68.0563 4.6917C67.8619 4.07142 67.4739 3.55448 66.988 3.14089C66.5029 2.72737 65.9198 2.62402 65.1431 2.62402C64.1721 2.62402 63.3954 2.93413 62.8124 3.65783C62.23 4.38153 61.9385 5.31199 61.9385 6.65604C61.9385 7.5865 62.0356 8.3102 62.3272 8.93048C62.6187 9.55083 63.0067 9.96435 63.4925 10.2745C63.9777 10.5846 64.5608 10.6881 65.3375 10.6881C65.8227 10.6881 66.3085 10.6881 66.6965 10.5846C67.0852 10.4813 67.4739 10.3779 67.8619 10.1711V9.03389C67.6676 9.13724 67.4739 9.24066 67.1824 9.34407C66.8909 9.44742 66.6 9.55083 66.3085 9.55083C66.017 9.65418 65.629 9.65418 65.3375 9.65418C64.5608 9.65418 63.9777 9.44742 63.5897 8.93048C63.201 8.41354 63.0067 7.68991 63.0067 6.75938L68.3478 6.75938C68.3478 6.03569 68.2506 5.31199 68.0563 4.6917ZM63.1039 5.82893C63.1039 5.51875 63.201 5.20864 63.2982 4.89847C63.4926 4.48494 63.6869 4.07142 63.9777 3.96801C64.2692 3.76124 64.6579 3.65783 65.1431 3.65783C65.8227 3.65783 66.4057 3.86459 66.6965 4.27818C66.988 4.58829 67.1824 5.20864 67.2796 5.82893H63.1039Z" fill="#26A4DA"/>
<path d="M73.6879 2.62402C73.5907 2.62402 73.4935 2.62402 73.4935 2.62402C73.0083 2.62402 72.5225 2.72737 72.0373 2.83078C71.5514 2.93413 71.1634 3.03755 70.7747 3.14089C70.4839 3.24431 70.1924 3.34772 70.0952 3.45107V10.6881H71.1634V3.86459C71.3578 3.86459 71.6486 3.76124 71.843 3.76124C72.0373 3.76124 72.3288 3.65783 72.5225 3.65783C72.7168 3.65783 73.0084 3.65783 73.2027 3.65783C73.397 3.65783 73.6879 3.65783 73.9794 3.65783V2.62402C73.785 2.62402 73.6879 2.62402 73.6879 2.62402Z" fill="#26A4DA"/>
<path d="M6.58901 1.38356C5.81217 0.556481 4.64692 0.0395508 3.09325 0.0395508L0.0830078 0.0395508L0.0830078 1.0734L3.09325 1.0734C4.3556 1.0734 5.22955 1.38356 5.81217 2.10729C6.3948 2.72757 6.68611 3.86479 6.68611 5.31219C6.68611 6.75958 6.3948 7.79346 5.81217 8.51716C5.22955 9.13751 4.3556 9.55103 3.09325 9.55103H1.15116L1.15116 2.31405H0.0830078L0.0830078 10.5849H3.19035C4.74402 10.5849 5.90928 10.1713 6.68611 9.24085C7.46295 8.41381 7.85137 7.06976 7.85137 5.31219C7.75426 3.55468 7.36584 2.21063 6.58901 1.38356Z" fill="#8C8C8C"/>
<path d="M0.37432 12.9629H0.0830078L0.0830078 15.8577H0.37432L0.37432 12.9629Z" fill="#8C8C8C"/>
<path d="M8.43375 13.6864C8.33664 13.583 8.14243 13.583 7.94822 13.583C7.85112 13.583 7.75401 13.583 7.75401 13.583C7.65691 13.583 7.55981 13.583 7.55981 13.583C7.4627 13.583 7.4627 13.583 7.3656 13.6864C7.26849 13.6864 7.26849 13.7898 7.17139 13.7898V15.7541H7.4627V13.8932C7.55981 13.8932 7.65691 13.8932 7.75401 13.7898C7.85112 13.7898 7.94822 13.7898 8.04533 13.7898C8.14243 13.7898 8.23954 13.7898 8.33664 13.7898C8.43375 13.7898 8.43375 13.8932 8.53085 13.8932C8.53085 13.9965 8.62796 13.9965 8.62796 14.0999C8.62796 14.2034 8.62796 14.2034 8.62796 14.3067V15.7541H8.82217V14.4101C8.82217 14.2034 8.82216 14.0999 8.72506 13.9965C8.72506 13.8932 8.62795 13.7898 8.43375 13.6864Z" fill="#8C8C8C"/>
<path d="M16.882 13.6864C16.7849 13.583 16.5907 13.583 16.3965 13.583C16.2994 13.583 16.2023 13.583 16.2023 13.583C16.1052 13.583 16.008 13.583 16.008 13.583C15.9109 13.583 15.9109 13.583 15.8138 13.6864C15.7167 13.6864 15.7167 13.7898 15.6196 13.7898V15.7541H15.9109V13.8932C16.0081 13.8932 16.1052 13.8932 16.2023 13.7898C16.2994 13.7898 16.3965 13.7898 16.4936 13.7898C16.5907 13.7898 16.6878 13.7898 16.7849 13.7898C16.882 13.7898 16.882 13.8932 16.9791 13.8932C16.9791 13.9965 17.0762 13.9965 17.0762 14.0999C17.0762 14.2034 17.0762 14.2034 17.0762 14.3067V15.7541H17.3675V14.4101C17.3675 14.2034 17.3675 14.0999 17.2704 13.9965C17.0762 13.8932 17.0762 13.7898 16.882 13.6864Z" fill="#8C8C8C"/>
<path d="M25.4273 13.7899C25.3302 13.6865 25.136 13.6865 24.8446 13.6865C24.5533 13.6865 24.3591 13.7899 24.1649 13.9967C23.9707 14.2035 23.9707 14.5136 23.9707 14.8238C23.9707 15.1339 24.0678 15.4441 24.1649 15.6509C24.3591 15.8576 24.5533 15.961 24.8446 15.961C25.136 15.961 25.3302 15.8576 25.5244 15.6509C25.7186 15.4441 25.7186 15.1339 25.7186 14.8238C25.7186 14.6171 25.7186 14.4102 25.6215 14.2035C25.6215 13.9967 25.5244 13.8934 25.4273 13.7899ZM25.4273 15.2373C25.4273 15.3408 25.3302 15.4441 25.2331 15.5475C25.136 15.6509 25.0389 15.6509 24.8446 15.6509C24.6504 15.6509 24.4562 15.5475 24.3591 15.4441C24.262 15.2373 24.262 15.0306 24.262 14.8238C24.262 14.6171 24.262 14.5136 24.3591 14.4102C24.3591 14.3069 24.4562 14.2035 24.5533 14.1001C24.6504 13.9967 24.7475 13.9967 24.9417 13.9967C25.136 13.9967 25.2331 13.9967 25.3302 14.1001C25.4273 14.2035 25.5244 14.3069 25.5244 14.4102C25.5244 14.5136 25.6215 14.7204 25.6215 14.8238C25.5244 14.9272 25.5244 15.0306 25.4273 15.2373Z" fill="#8C8C8C"/>
<path d="M33.1951 15.4441L32.5154 13.6865H32.127L33.0009 15.8576H33.2922L34.1661 13.6865H33.8748L33.1951 15.4441Z" fill="#8C8C8C"/>
<path d="M42.1289 13.8934C42.1289 13.7899 42.0318 13.7899 41.9347 13.7899C41.8376 13.7899 41.8376 13.6865 41.7404 13.6865C41.6433 13.6865 41.5462 13.6865 41.4491 13.6865C41.352 13.6865 41.1578 13.6865 41.0607 13.6865C40.9636 13.6865 40.7694 13.7899 40.7694 13.7899V14.1001C40.8665 13.9967 40.9636 13.9967 41.0607 13.8934C41.1578 13.8934 41.2549 13.8934 41.4491 13.8934C41.6433 13.8934 41.7405 13.8934 41.8376 13.9967C41.9347 14.1001 41.9347 14.2035 41.9347 14.4102V14.7204C41.9347 14.7204 41.8376 14.7204 41.8376 14.6171C41.7405 14.6171 41.7405 14.6171 41.6433 14.5136C41.5462 14.5136 41.4491 14.5136 41.352 14.5136C41.1578 14.5136 41.0607 14.5136 40.9636 14.6171C40.8665 14.6171 40.7694 14.7204 40.6723 14.8238C40.5752 14.9272 40.5752 15.0306 40.5752 15.2373C40.5752 15.3408 40.5752 15.4441 40.6723 15.5475C40.6723 15.6509 40.7694 15.6509 40.8665 15.7543C40.9636 15.7543 41.0607 15.8576 41.1578 15.8576C41.2549 15.8576 41.352 15.8576 41.4491 15.8576C41.6433 15.8576 41.7405 15.8576 41.9347 15.8576C42.0318 15.8576 42.226 15.7543 42.226 15.7543C42.3231 15.6509 42.3231 15.5475 42.3231 15.4441V14.4102C42.3231 14.3069 42.3231 14.2035 42.3231 14.2035C42.226 13.9967 42.226 13.8934 42.1289 13.8934ZM41.8376 15.5475C41.7405 15.5475 41.6433 15.5475 41.4491 15.5475C41.352 15.5475 41.2549 15.5475 41.1578 15.5475C41.0607 15.5475 40.9636 15.4441 40.9636 15.4441C40.8665 15.3407 40.8665 15.3408 40.8665 15.2373C40.8665 15.1339 40.8665 15.0306 40.9636 14.9272C41.0607 14.8238 41.1578 14.8238 41.352 14.8238C41.4491 14.8238 41.6433 14.8238 41.7404 14.9272C41.8376 14.9272 41.8376 15.0306 41.9347 15.0306V15.5475C42.0318 15.4441 41.9347 15.5475 41.8376 15.5475Z" fill="#8C8C8C"/>
<path d="M49.5086 13.0659H49.2171V13.6863H48.8291V13.9964H49.2171V15.3404C49.2171 15.5472 49.3143 15.6506 49.4115 15.7539C49.5086 15.8574 49.6058 15.8574 49.8001 15.8574C49.8973 15.8574 49.8973 15.8574 49.9945 15.8574C50.0917 15.8574 50.0917 15.8574 50.0917 15.8574V15.5472H49.9945H49.8973C49.8001 15.5472 49.703 15.5472 49.703 15.4438C49.703 15.3404 49.6058 15.3404 49.6058 15.1337V13.893H50.0917V13.5829H49.6058V13.0659H49.5086Z" fill="#8C8C8C"/>
<path d="M56.9857 12.9629H56.6948V13.273H56.9857V12.9629Z" fill="#26A4DA"/>
<path d="M56.9857 13.6865H56.6948V15.8576H56.9857V13.6865Z" fill="#8C8C8C"/>
<path d="M65.1424 13.7899C65.0453 13.6865 64.8509 13.6865 64.5601 13.6865C64.2686 13.6865 64.0742 13.7899 63.8799 13.9967C63.6855 14.2035 63.6855 14.5136 63.6855 14.8238C63.6855 15.1339 63.7827 15.4441 63.8799 15.6509C64.0742 15.8576 64.2686 15.961 64.5601 15.961C64.8509 15.961 65.0453 15.8576 65.2396 15.6509C65.434 15.4441 65.434 15.1339 65.434 14.8238C65.434 14.6171 65.434 14.4102 65.3368 14.2035C65.3368 13.9967 65.2396 13.8934 65.1424 13.7899ZM65.1424 15.2373C65.1424 15.3408 65.0453 15.4441 64.9481 15.5475C64.8509 15.6509 64.7538 15.6509 64.5601 15.6509C64.3658 15.6509 64.1714 15.5475 64.0742 15.4441C63.9771 15.2373 63.9771 15.0306 63.9771 14.8238C63.9771 14.6171 63.9771 14.5136 64.0742 14.4102C64.0742 14.3069 64.1714 14.2035 64.2686 14.1001C64.3658 13.9967 64.4629 13.9967 64.6573 13.9967C64.8509 13.9967 64.9481 13.9967 65.0453 14.1001C65.1425 14.2035 65.2396 14.3069 65.2396 14.4102C65.2396 14.5136 65.3368 14.7204 65.3368 14.8238C65.2396 14.9272 65.2396 15.0306 65.1424 15.2373Z" fill="#8C8C8C"/>
<path d="M73.591 13.6864C73.4938 13.583 73.3002 13.583 73.1058 13.583C73.0086 13.583 72.9115 13.583 72.9115 13.583C72.8143 13.583 72.7171 13.583 72.7171 13.583C72.6199 13.583 72.6199 13.583 72.5228 13.6864C72.4263 13.6864 72.4263 13.7898 72.3291 13.7898V15.7541H72.62V13.8932C72.7171 13.8932 72.8143 13.8932 72.9115 13.7898C73.0086 13.7898 73.1058 13.7898 73.203 13.7898C73.3001 13.7898 73.3973 13.7898 73.4938 13.7898C73.591 13.7898 73.591 13.8932 73.6882 13.8932C73.6882 13.9965 73.7853 13.9965 73.7853 14.0999C73.7853 14.2034 73.7853 14.2034 73.7853 14.3067V15.7541H74.0769V14.4101C74.0769 14.2034 74.0768 14.0999 73.9797 13.9965C73.7853 13.8932 73.6882 13.7898 73.591 13.6864Z" fill="#8C8C8C"/>
</svg>
