<svg width="75" height="75" viewBox="0 0 75 75" fill="none" xmlns="http://www.w3.org/2000/svg">
<path d="M70.6667 52.1481H59.5556C57.591 52.1481 55.7069 52.9286 54.3177 54.3177C52.9286 55.7069 52.1481 57.591 52.1481 59.5556V70.6667M70.6667 70.6667V70.7037M37.3333 18.8148V29.9259C37.3333 31.8905 36.5529 33.7746 35.1638 35.1638C33.7746 36.5529 31.8905 37.3333 29.9259 37.3333H18.8148M4 37.3333H4.03704M37.3333 4H37.3704M37.3333 52.1481V52.1852M52.1481 37.3333H55.8519M70.6667 37.3333V37.3704M37.3333 70.6667V66.963M7.7037 4H18.8148C20.8603 4 22.5185 5.6582 22.5185 7.7037V18.8148C22.5185 20.8603 20.8603 22.5185 18.8148 22.5185H7.7037C5.6582 22.5185 4 20.8603 4 18.8148V7.7037C4 5.6582 5.6582 4 7.7037 4ZM55.8519 4H66.963C69.0085 4 70.6667 5.6582 70.6667 7.7037V18.8148C70.6667 20.8603 69.0085 22.5185 66.963 22.5185H55.8519C53.8064 22.5185 52.1481 20.8603 52.1481 18.8148V7.7037C52.1481 5.6582 53.8064 4 55.8519 4ZM7.7037 52.1481H18.8148C20.8603 52.1481 22.5185 53.8064 22.5185 55.8519V66.963C22.5185 69.0085 20.8603 70.6667 18.8148 70.6667H7.7037C5.6582 70.6667 4 69.0085 4 66.963V55.8519C4 53.8064 5.6582 52.1481 7.7037 52.1481Z" stroke="#26A4DA" stroke-width="7.40741" stroke-linecap="round" stroke-linejoin="round"/>
</svg>
